<svg xmlns="http://www.w3.org/2000/svg" viewBox="0 0 801.512 772"><ellipse cx="371" cy="625.14" fill="#d6d6e3" rx="371" ry="146.86"/><path fill="#ed9da0" d="M626.423 146.418c2.448-52.562-38.176-97.156-90.737-99.604-52.562-2.449-97.156 38.176-99.604 90.737-1.986 42.627 24.36 80.01 62.426 93.925l12.735 122.446 97.431-73.79s-19.059-26.752-28.57-56.359c26.476-15.847 44.775-44.223 46.319-77.355"/><path fill="#a18072" d="M500 249s-59.788-2.079-78.755 22.557S390 338 391 369s74.279 194.193 74.279 194.193l269 48 15.917.77c25.727 1.245 47.833-18.074 50.046-43.736 4.234-49.119-2.153-98.562-18.677-145.011C761.371 366.45 732.296 295.09 708 276c-42-33-120-31-120-31l.203.159L540 313z"/><path fill="#090814" d="m183.575 601.399-34.804 17.39 166.508 30.295s22.325 32.93 60.912 15.27l204.588 57.34 142-98-407.5-77.5z"/><path fill="#d6d6e3" d="M490.279 565.104s-23.461-30.41-70.48-18.91l-104.52-18.308-131.704 59.168s-9.796 25.64-15.796 26.64c0 0 156 17.964 168.5 33.482l35.5 8.517s28-4 50 11 153 43 153 43l138.95-90.903-23.339-19.33z"/><path fill="#090814" d="m557.903 674.77-.402-.116c-69.74-20.125-175.482-49.5-180.902-47.97l-.882-1.79c1.116-.604 3.736-2.013 93.564 22.782 41.964 11.584 83.842 23.636 88.374 24.941l132.247-74.03.976 1.746z"/><path fill="#090814" d="m353.334 639.063-.454-.931c-.178-.364-18.365-36.463-70.49-35.734-52.976.692-98.675-14.244-99.13-14.395l.63-1.899c.452.15 45.855 14.959 98.473 14.294 27.874-.37 46.05 9.644 56.374 18.11 9.309 7.632 14.017 15.244 15.456 17.832l135.616-72.118.94 1.765z"/><path fill="#a18072" d="m332.779 460.664-50.5 19.53s35.279 78.193 73 87l36.967-53.265z"/><path fill="#ed9da0" d="M320.63 481.775 433 399l14 63-95.292 61.672c-1.743 13.162-9.48 26.518-22.264 36-22.368 16.592-51.632 15.036-65.363-3.475s-6.73-46.968 15.637-63.56c12.784-9.483 27.81-13.012 40.912-10.862"/><path fill="#090814" d="M518.879 92.049s-19.855 21.581-42.3 23.308c-22.445 1.726-27.92 0-27.92 0s-21.286 11.222-5.748 23.308l4.317 7.77s-3.077 5.179-6.286 0l.243 7.769s-16.402-6.907-16.402-18.992c0 0-17.076 8.632-23.645-12.086 0 0 13.47 8.633 13.81 0 0 0-22.97-13.812-17.79-34.53 0 0 .864 7.769 5.18 8.632 0 0-13.812-29.35 5.18-42.3l2.59 10.36s0-18.992 18.991-25.899c0 0-2.59 8.633.863 12.086 0 0 5.18-23.308 14.676-22.445 0 0-5.18 10.36 1.727 10.36 6.906 0 16.402-25.899 16.402-25.899s13.812-7.769 18.991-6.906c0 0-17.265 10.36-6.906 10.36s15.539-7.77 15.539-7.77S507.656-5.5 527.511 2.27s17.266 7.77 17.266 7.77 16.402-13.813 29.35-6.043l-4.316 5.18s42.3 9.495 42.3 29.35c0 0 20.2 16.461 14.417 32.834 0 0 9.755 6.013 8.028 13.782 0 0 12.95 58.702-1.726 78.557l-12.086 13.813s-18.129-50.933-25.898-30.215c-7.77 20.719-22.445-5.18-22.445-5.18s-19.855-14.675-21.582-35.393-31.94-14.675-31.94-14.675"/><path fill="#a18072" d="m434 302-19-16-40 142-92.721 52.193s114-6 73 87L468 547l-10.721-84.807z"/><path fill="#090814" d="m276.779 409.693-6.648 4.5 3.324 16.303 56.213 155.608 16.28-6.802-60.17-157.609z"/><path fill="#090814" d="m338.648 577.914-5.87 2.78 1.603 5.41s-2.777 12.558 8.81 18.074l4.588 6.515 1-8s.738-18.559-10.131-24.78"/><path fill="#ed9da0" d="m573.883 538.856 189.427 7.947L767 604l-195.193-13.02c-9.614 9.157-24.018 14.706-39.922 14.072-27.828-1.108-49.643-20.676-48.726-43.706s24.22-40.8 52.048-39.692c15.904.633 29.82 7.31 38.676 17.202"/><circle cx="548" cy="410" r="7" fill="#090814"/><circle cx="548" cy="492" r="7" fill="#090814"/><path fill="#d6d6e3" d="M282.279 136.857s-71.5-31.164-117.5 3.836c0 0-27.015 127.648-49.008 138.824 0 0 179.252-17.388 214.63 6.894 0 0-39.622-66.391-48.122-149.554"/><path fill="#d6d6e3" d="m205.856 261.102-1.077 27.591s12 11 7 30l-5 2 2.11 3.016-9.11 6.984 6.61 6.054s9.609 11.709 0 14.828l3.39 7.118s5.219 18.548-3.39 33.274-21.391 32.633 0 64.68l-3.61 8.046 5 7s-3 17-11 21h50s-14-16-11-20 6-7 6-7l-7-8s30.71-24.542 2.855-61.77c0 0-7.855-31.23-3.855-37.23l3-6s-8-6-1-17l8-3-9-7 3-4-7-5s-4-23 8-28l-3-19z"/><path fill="#a18072" d="M748.779 611.664C754.248 604.472 609.843 598.671 606 592c-20.752-36.021-10-64-10-64l169-40-75.221-78.307 61.665 46.845a124.99 124.99 0 0 1 48.92 110.264c-2.277 26.421-25.103 46.272-51.585 44.862"/><path fill="#090814" d="m183.456 585.204 76.275-36.65.866 1.803-76.275 36.65z"/></svg>