<svg xmlns="http://www.w3.org/2000/svg" viewBox="0 0 806.639 513.393"><path fill="#ed9da0" d="M189.168 79.067a77.011 77.011 0 1 1 100.083 73.49l-2.574 148.209L168.97 184.587s45.895-17.77 54.687-41.318a76.93 76.93 0 0 1-34.489-64.2Z"/><path fill="#090814" d="M224 143.313s-26.276-9.358-39.745-36.688c-12.372-25.1-13.729-67.868 21.4-78.254 0 0-20.239-17.474 17.075-28.12l-4.963 4.579s4.38-7.91 26.009-3.232c0 0 79.924-9.309 94.11 17.007 0 0 42.9 8.791 20.053 41.422 0 0-1.181 6.35-9.332 6.23l4.072-5.326-12.411 5.326s-17.262-27.495-33.554-12.292c0 0-31.159-1.311-46.062-4.041 0 0 2.991 40.025-25.612 47.82S224 143.313 224 143.313"/><path fill="#ed9da0" d="m488.239 401.963-140.756 83.965-11.7-54.552L469.15 368.01c2.526-9.587 9.511-18.756 19.871-24.582 18.127-10.194 39.661-6.3 48.1 8.7s.581 35.427-17.546 45.621c-10.36 5.826-21.823 7.031-31.327 4.21Z"/><path fill="#090814" d="M500.185 397.641h-28.67a10.605 10.605 0 0 1-10.3-8.3 10.58 10.58 0 0 1 3.163-10l87.422-80.465a6.98 6.98 0 0 1 4.979-1.844l27.754.957a7 7 0 0 1 4.784 11.859l-82.182 84.85a9.72 9.72 0 0 1-6.947 2.942Z"/><path fill="#d6d6e3" d="M194.983 165.053c32.442 32.6 63.25 41.349 91.6 14.169l40.035 293.358-16.646 24.119-101.232.288z"/><path fill="#090814" d="m189.656 162.104-16.928 13.913-51.392 29.332A76.58 76.58 0 0 0 74.9 254.335a461.3 461.3 0 0 0-17.4 80.883c-8.447 69.355-2.313 160.805-2.313 160.805l78.132.679-3.4-45.86-12.563-113.464.333 159.61h91.047s6.231-270.71-7.347-330.913a7.284 7.284 0 0 0-11.734-3.97Zm96.923 17.118 61.562 29.6a75.08 75.08 0 0 1 41 52.524l25.796 125.289 8.43 75.786S387.1 494.9 363.3 484.135l1.7 12.569h-55.032z"/><path fill="#090814" d="m376.89 407.697 72.357-40.085 20.722 57.41s-41.593 51.534-106.669 59.113l13.588-76.434Z"/><path fill="#a18072" d="M498.588 390.426a3.4 3.4 0 0 1-.459-.033l-27.446-3.843a3.347 3.347 0 0 1-1.855-5.728l82.011-78.794a3.48 3.48 0 0 1 2.414-.933l28.919.83a3.347 3.347 0 0 1 2.247 5.737l-83.481 81.808a3.38 3.38 0 0 1-2.348.955Z"/><path fill="#a18072" d="M538.418 327.907c.177.109.223.55.264.784.087.487.654 9.779.631 10.321a1.943 1.943 0 0 1-2.083 2.161c-.534.027-9.512-.484-10.186-.58-1.089-.154-1.59-.6-.363-2.049 1-1.184 8.311-8.217 10.241-10.248a1.52 1.52 0 0 1 1.5-.389Z"/><path fill="#fff" d="M377.109 502.828a305.5 305.5 0 0 1-32.674-79.071 311.5 311.5 0 0 1-9.8-84.578 301 301 0 0 1 4.875-47.774c.347-1.887-2.543-2.7-2.893-.8a306 306 0 0 0-4.807 43 310 310 0 0 0 1.284 43.276 317 317 0 0 0 7.154 42.468 311 311 0 0 0 12.985 41.3 305.6 305.6 0 0 0 18.6 39.048q1.324 2.333 2.689 4.641a1.5 1.5 0 0 0 2.59-1.514Zm51.339-131.053a53.8 53.8 0 0 1-36.3 25.951c-1.894.365-1.092 3.257.8 2.893a56.72 56.72 0 0 0 38.09-27.33 1.5 1.5 0 0 0-2.59-1.514m-294.76 140.179c-1.513-17.655-.436-35.618.987-53.241a507 507 0 0 1 8.193-60.356 186.5 186.5 0 0 1 6.911-26.11c.656-1.819-2.242-2.6-2.893-.8a177 177 0 0 0-6.276 23.066c-2.039 9.538-3.648 19.167-5.014 28.823a552 552 0 0 0-5.38 61.22 240 240 0 0 0 .472 27.395c.164 1.909 3.165 1.927 3 0Z"/><path fill="#ed9da0" d="m233.057 474.524-111.477 12.74 10.7-42.8 98.853-8.844c6.541-7.45 16.885-12.535 28.757-13.122 20.771-1.027 38.3 12.076 39.148 29.266s-15.3 31.958-36.071 32.984c-11.871.587-22.666-3.454-29.911-10.222Z"/><path fill="#090814" d="m130.867 429.935 82.642-3.556-7.095 60.622s-60.229 27.534-121.836 5.253zm156.12-249.259 39.638 290.459 3.454-5-40.035-293.366c-25.9 24.833-53.852 19.672-83.229-6.266a4.738 4.738 0 0 0-7.875 3.471c31.14 29.712 60.736 36.888 88.047 10.7Z"/><path fill="#ccc" d="M470.011 502.049H2.36a2.759 2.759 0 0 1 0-5.458h467.651a2.753 2.753 0 0 1 0 5.458"/><path fill="#a18072" d="m566.345 276.536-2.984-6.7h-9.251a27.5 27.5 0 0 1-27.5-27.5 27.5 27.5 0 0 1 27.5-27.5h219a27.5 27.5 0 0 1 27.5 27.5 27.5 27.5 0 0 1-27.5 27.5H598.739l-23.7 10.552a5.8 5.8 0 0 1-2.381.5 7.09 7.09 0 0 1-6.313-4.352"/><path fill="#f2f2f2" d="M416.464 128.407h219a27.5 27.5 0 0 1 0 55h-219a27.5 27.5 0 0 1 0-55"/><path fill="#a18072" d="M560.138 41.986h219a27.5 27.5 0 0 1 0 55h-219a27.5 27.5 0 0 1 0-55"/></svg>